<?xml version="1.0" encoding="UTF-8"?>
<svg xmlns="http://www.w3.org/2000/svg" xmlns:xlink="http://www.w3.org/1999/xlink" width="302px" height="px" viewBox="0 0 302 90" version="1.1">
<g id="surface1">
<path style=" stroke:none;fill-rule:nonzero;fill:rgb(100%,100%,100%);fill-opacity:1;" d="M 1.476562 2.65625 L 87.53125 2.65625 L 87.53125 87.484375 L 1.476562 87.484375 Z M 1.476562 2.65625 "/>
<path style=" stroke:none;fill-rule:nonzero;fill:rgb(100%,100%,100%);fill-opacity:1;" d="M 86.90625 2.519531 L 299.476562 2.519531 L 299.476562 87.347656 L 86.90625 87.347656 Z M 86.90625 2.519531 "/>
<path style=" stroke:none;fill-rule:nonzero;fill:rgb(50.588235%,51.372549%,52.54902%);fill-opacity:1;" d="M 116.671875 52.363281 C 106.269531 52.363281 99.664062 46.652344 99.664062 36.652344 C 99.664062 26.03125 106.105469 20.660156 116.839844 20.660156 C 120.191406 20.574219 123.519531 21.191406 126.613281 22.46875 L 124.640625 27.726562 C 122.113281 26.855469 119.453125 26.4375 116.78125 26.480469 C 111.1875 26.480469 106.835938 29.140625 106.835938 36.199219 C 106.835938 43.492188 111.640625 46.429688 117.351562 46.429688 C 118.25 46.429688 119.15625 46.371094 119.835938 46.316406 L 119.835938 36.285156 L 126.847656 36.285156 L 126.847656 50.664062 C 123.589844 51.855469 120.136719 52.429688 116.671875 52.363281 "/>
<path style=" stroke:none;fill-rule:nonzero;fill:rgb(50.588235%,51.372549%,52.54902%);fill-opacity:1;" d="M 197.128906 51.855469 L 197.128906 35.523438 L 197.414062 30.828125 L 188.375 51.855469 L 180.296875 51.855469 L 171.875 30.828125 L 172.386719 35.183594 L 172.386719 51.855469 L 165.605469 51.855469 L 165.605469 21 L 174.589844 21 L 184.476562 45.46875 L 195.382812 21 L 203.914062 21 L 203.914062 51.855469 Z M 197.128906 51.855469 "/>
<path style=" stroke:none;fill-rule:nonzero;fill:rgb(50.588235%,51.372549%,52.54902%);fill-opacity:1;" d="M 242.902344 51.855469 L 242.902344 35.523438 L 243.183594 30.828125 L 234.148438 51.855469 L 226.066406 51.855469 L 217.648438 30.832031 L 218.160156 35.183594 L 218.160156 51.855469 L 211.378906 51.855469 L 211.378906 21 L 220.363281 21 L 230.246094 45.46875 L 241.148438 21 L 249.683594 21 L 249.683594 51.855469 Z M 242.902344 51.855469 "/>
<path style=" stroke:none;fill-rule:nonzero;fill:rgb(50.588235%,51.372549%,52.54902%);fill-opacity:1;" d="M 143.265625 46.429688 C 140.949219 46.429688 139.535156 45.40625 139.535156 42.867188 C 139.535156 40.890625 140.324219 39.253906 145.414062 39.023438 L 151.117188 38.742188 L 151.117188 44.222656 C 149.875 44.5625 145.695312 46.429688 143.265625 46.429688 M 145.917969 20.265625 C 142.03125 20.304688 138.1875 21.050781 134.566406 22.46875 L 136.03125 28.007812 C 138.832031 27.203125 141.714844 26.726562 144.621094 26.59375 C 149.082031 26.59375 151.121094 27.15625 151.121094 30.828125 L 151.121094 34.105469 C 150.105469 34.105469 144.960938 34.164062 144.960938 34.164062 C 139.3125 34.222656 132.308594 35.632812 132.308594 43.3125 C 132.308594 49.308594 135.925781 52.304688 142.136719 52.304688 C 145.40625 52.222656 148.5625 51.078125 151.121094 49.042969 L 151.121094 51.851562 L 158.339844 51.851562 L 158.355469 29.191406 C 158.355469 21.222656 152.371094 20.265625 145.921875 20.265625 "/>
<path style=" stroke:none;fill-rule:nonzero;fill:rgb(50.588235%,51.372549%,52.54902%);fill-opacity:1;" d="M 265.820312 46.429688 C 263.503906 46.429688 262.085938 45.40625 262.085938 42.867188 C 262.085938 40.890625 262.875 39.253906 267.960938 39.023438 L 273.671875 38.742188 L 273.671875 44.222656 C 272.425781 44.5625 268.242188 46.429688 265.820312 46.429688 M 268.472656 20.265625 C 264.585938 20.304688 260.738281 21.046875 257.117188 22.46875 L 258.578125 28.007812 C 261.378906 27.203125 264.261719 26.726562 267.175781 26.59375 C 271.636719 26.59375 273.675781 27.15625 273.675781 30.828125 L 273.675781 34.105469 C 272.660156 34.105469 267.511719 34.164062 267.511719 34.164062 C 261.863281 34.222656 254.859375 35.632812 254.859375 43.3125 C 254.859375 49.308594 258.476562 52.304688 264.691406 52.304688 C 267.960938 52.222656 271.113281 51.078125 273.675781 49.042969 L 273.675781 51.851562 L 280.890625 51.851562 L 280.90625 29.191406 C 280.90625 21.222656 274.914062 20.265625 268.476562 20.265625 "/>
<path style=" stroke:none;fill-rule:nonzero;fill:rgb(0%,70.980392%,46.666667%);fill-opacity:1;" d="M 296.960938 84.832031 L 89.871094 84.832031 L 89.871094 5.039062 L 296.960938 5.039062 Z M 49.359375 84.832031 L 40.429688 84.832031 C 40.65625 79.488281 48.976562 79.824219 49.363281 84.832031 M 11.757812 5.039062 C 11.664062 12.113281 18.121094 8.964844 20.914062 6.441406 C 20.859375 7.636719 20.269531 7.894531 19.917969 9.046875 C 19.433594 10.84375 19.574219 12.75 20.320312 14.453125 C 23.085938 11.28125 27.019531 7.601562 33.855469 8.441406 C 35.941406 8.832031 37.871094 9.800781 39.429688 11.242188 C 44.117188 16.164062 39.648438 23.90625 33.855469 23.460938 C 32.039062 23.316406 30.992188 22.359375 31.0625 21.253906 C 31.195312 19.269531 34.535156 19.511719 34.652344 17.453125 C 34.757812 15.488281 32.472656 14.300781 30.269531 14.644531 C 28.085938 15.003906 26.21875 16.40625 25.265625 18.40625 C 24.316406 20.402344 24.402344 22.738281 25.496094 24.660156 C 27.085938 27.269531 29.816406 28.976562 32.863281 29.257812 C 36.929688 29.777344 37.929688 28.074219 41.8125 27.257812 C 41.769531 32.152344 38.480469 34.617188 34.246094 34.660156 C 34.402344 38.960938 39.699219 38.960938 42.613281 37.863281 C 42.28125 39.464844 41.359375 39.851562 41.410156 41.066406 C 41.59375 44.746094 48.027344 45.125 48.382812 41.265625 C 48.511719 39.804688 47.417969 39.347656 47.1875 37.863281 C 50.074219 38.964844 55.234375 38.949219 55.546875 34.859375 C 51.632812 34.40625 47.914062 32.351562 47.984375 27.257812 C 51.542969 28.179688 53.453125 29.613281 56.746094 29.257812 C 61.113281 28.785156 65.636719 25.53125 65.101562 20.25 C 64.738281 16.671875 60.957031 13.613281 57.34375 14.640625 C 56.121094 15.058594 55.261719 16.160156 55.148438 17.449219 C 55.265625 19.496094 58.449219 19.226562 58.730469 21.046875 C 59.316406 24.746094 52.042969 23.027344 50.570312 21.648438 C 45.570312 16.953125 50.234375 9.195312 55.746094 8.429688 C 61.03125 7.722656 66.261719 10.046875 69.28125 14.441406 C 71.414062 12.222656 69.132812 7.8125 68.6875 6.429688 C 71.453125 8.488281 77.902344 12.5 78.042969 5.027344 L 84.828125 5.027344 L 84.828125 10.238281 C 81.523438 9.992188 82.003906 13.351562 82.871094 15.445312 C 80.78125 14.429688 76.25 14.097656 76.5 18.046875 C 79.421875 18.644531 82.726562 18.851562 82.078125 23.046875 C 78.015625 22.089844 74.910156 21.644531 72.320312 23.445312 C 68.308594 26.234375 68.402344 37.5 73.914062 36.851562 C 78.125 36.363281 74.21875 32.703125 76.5 29.050781 C 77.332031 28.351562 78.496094 28.195312 79.488281 28.652344 C 81.886719 29.773438 82.351562 32.210938 82.273438 34.851562 C 82.09375 41.570312 72.703125 45.332031 67.144531 40.261719 C 65.234375 38.519531 63.453125 35.921875 63.363281 33.253906 C 60.53125 33.945312 59.03125 37.625 60.773438 41.261719 C 52.164062 37.625 54.390625 52.144531 60.773438 48.671875 C 59.5 52 60.472656 56.183594 63.566406 56.679688 C 63.640625 53.328125 65.210938 51.597656 66.949219 49.871094 C 72.390625 44.480469 82.246094 48.304688 82.273438 55.277344 C 82.316406 57.601562 81.289062 59.816406 79.488281 61.28125 C 78.125 62.496094 77.066406 61.441406 76.5 60.882812 C 75.308594 59.664062 78.042969 53.132812 73.71875 53.074219 C 68.339844 53.007812 68.359375 63.742188 72.523438 66.492188 C 75.085938 68.183594 77.984375 67.9375 82.078125 66.890625 C 82.722656 71.015625 79.523438 71.269531 76.703125 71.890625 C 75.945312 75.261719 80.535156 76.082031 82.871094 74.289062 C 82.128906 76.515625 81.394531 79.898438 84.828125 79.695312 L 84.828125 84.804688 L 78.042969 84.804688 C 78.066406 77.878906 71.664062 80.992188 68.890625 83.5 C 68.941406 82.308594 69.53125 82.046875 69.886719 80.898438 C 70.367188 79.105469 70.226562 77.195312 69.484375 75.492188 C 66.71875 78.664062 62.777344 82.335938 55.953125 81.496094 C 53.867188 81.113281 51.933594 80.144531 50.378906 78.695312 C 45.679688 73.78125 50.152344 66.035156 55.953125 66.484375 C 57.765625 66.625 58.8125 67.585938 58.734375 68.6875 C 58.601562 70.667969 55.265625 70.425781 55.152344 72.484375 C 55.042969 74.445312 57.328125 75.644531 59.53125 75.289062 C 61.714844 74.933594 63.582031 73.53125 64.535156 71.539062 C 65.488281 69.542969 65.402344 67.207031 64.308594 65.285156 C 62.71875 62.667969 59.988281 60.957031 56.941406 60.679688 C 52.871094 60.15625 51.875 61.867188 47.984375 62.679688 C 48.027344 57.785156 51.320312 55.316406 55.550781 55.269531 C 55.398438 50.96875 50.097656 50.964844 47.1875 52.070312 C 47.519531 50.46875 48.445312 50.074219 48.382812 48.871094 C 48.203125 45.191406 41.769531 44.8125 41.410156 48.671875 C 41.277344 50.128906 42.378906 50.582031 42.613281 52.070312 C 39.726562 50.96875 34.566406 50.980469 34.246094 55.070312 C 38.171875 55.527344 41.886719 57.578125 41.816406 62.679688 C 38.257812 61.75 36.347656 60.324219 33.058594 60.679688 C 28.6875 61.152344 24.167969 64.40625 24.703125 69.691406 C 25.066406 73.269531 28.839844 76.316406 32.464844 75.289062 C 33.6875 74.871094 34.542969 73.773438 34.652344 72.484375 C 34.535156 70.4375 31.359375 70.703125 31.066406 68.886719 C 30.480469 65.183594 37.757812 66.90625 39.230469 68.285156 C 44.230469 72.976562 39.566406 80.730469 34.050781 81.496094 C 28.769531 82.207031 23.535156 79.882812 20.519531 75.488281 C 18.382812 77.707031 20.671875 82.117188 21.113281 83.5 C 18.363281 81.449219 11.96875 77.476562 11.761719 84.804688 L 5.042969 84.804688 L 5.042969 79.695312 C 8.453125 79.878906 7.722656 76.507812 6.976562 74.289062 C 9.316406 76.074219 13.902344 75.257812 13.144531 71.890625 C 10.324219 71.265625 7.132812 71.011719 7.773438 66.890625 C 11.875 67.9375 14.769531 68.191406 17.332031 66.488281 C 21.492188 63.742188 21.507812 53.007812 16.136719 53.074219 C 11.804688 53.128906 14.546875 59.660156 13.347656 60.882812 C 12.777344 61.441406 11.726562 62.496094 10.359375 61.28125 C 8.5625 59.8125 7.535156 57.597656 7.578125 55.277344 C 7.609375 48.304688 17.464844 44.476562 22.902344 49.871094 C 24.648438 51.59375 26.203125 53.324219 26.292969 56.679688 C 29.378906 56.179688 30.347656 52 29.074219 48.671875 C 35.460938 52.144531 37.675781 37.625 29.074219 41.261719 C 30.8125 37.625 29.316406 33.941406 26.488281 33.253906 C 26.394531 35.921875 24.621094 38.515625 22.703125 40.261719 C 17.144531 45.328125 7.753906 41.566406 7.574219 34.851562 C 7.5 32.207031 7.964844 29.769531 10.359375 28.652344 C 11.347656 28.195312 12.511719 28.347656 13.347656 29.050781 C 15.632812 32.703125 11.722656 36.363281 15.941406 36.851562 C 21.441406 37.496094 21.539062 26.234375 17.523438 23.445312 C 14.933594 21.644531 11.839844 22.089844 7.773438 23.042969 C 7.121094 18.84375 10.429688 18.632812 13.347656 18.042969 C 13.601562 14.09375 9.058594 14.425781 6.976562 15.445312 C 7.84375 13.359375 8.320312 10.015625 5.042969 10.234375 L 5.042969 5.027344 Z M 49.382812 5.039062 C 49.261719 10.53125 40.695312 10.179688 40.421875 5.039062 Z M 0 89.777344 L 302 89.777344 L 302 0 L 0 0 Z M 0 89.777344 "/>
<path style=" stroke:none;fill-rule:nonzero;fill:rgb(50.588235%,51.372549%,52.54902%);fill-opacity:1;" d="M 287.789062 50.632812 L 287.488281 50.632812 L 287.488281 51.414062 L 287.679688 51.414062 C 288.113281 51.414062 288.265625 51.246094 288.265625 51.007812 C 288.265625 50.738281 288.175781 50.632812 287.789062 50.632812 M 289.550781 53.207031 C 289.054688 53.203125 288.589844 52.984375 288.269531 52.605469 C 288.269531 52.605469 287.960938 52.265625 287.796875 52.074219 L 287.488281 52.074219 L 287.488281 53.148438 L 286.5625 53.148438 L 286.5625 49.894531 L 287.890625 49.894531 C 288.640625 49.894531 289.207031 50.234375 289.207031 50.988281 C 289.210938 51.335938 289.027344 51.664062 288.730469 51.84375 C 288.839844 51.960938 289.003906 52.136719 289.003906 52.136719 C 289.191406 52.335938 289.445312 52.46875 289.71875 52.507812 Z M 289.550781 53.207031 "/>
<path style=" stroke:none;fill-rule:nonzero;fill:rgb(50.588235%,51.372549%,52.54902%);fill-opacity:1;" d="M 287.863281 47.554688 C 286.261719 47.546875 284.8125 48.503906 284.191406 49.980469 C 283.570312 51.460938 283.90625 53.167969 285.035156 54.304688 C 286.164062 55.441406 287.871094 55.785156 289.351562 55.171875 C 290.832031 54.5625 291.800781 53.117188 291.800781 51.515625 C 291.804688 50.46875 291.394531 49.460938 290.65625 48.71875 C 289.914062 47.976562 288.914062 47.558594 287.863281 47.554688 M 287.863281 48.484375 C 289.089844 48.476562 290.203125 49.207031 290.675781 50.339844 C 291.152344 51.46875 290.898438 52.773438 290.035156 53.644531 C 289.171875 54.515625 287.867188 54.78125 286.734375 54.3125 C 285.601562 53.847656 284.859375 52.742188 284.859375 51.515625 C 284.851562 49.847656 286.199219 48.492188 287.863281 48.484375 "/>
<path style=" stroke:none;fill-rule:nonzero;fill:rgb(50.588235%,51.372549%,52.54902%);fill-opacity:1;" d="M 157.160156 72.15625 L 157.160156 67.265625 L 152.449219 67.265625 L 152.449219 72.15625 L 148.925781 72.15625 L 148.925781 59.738281 L 152.449219 59.738281 L 152.449219 64.582031 L 157.160156 64.582031 L 157.160156 59.738281 L 160.683594 59.738281 L 160.683594 72.152344 Z M 157.160156 72.15625 "/>
<path style=" stroke:none;fill-rule:nonzero;fill:rgb(50.588235%,51.372549%,52.54902%);fill-opacity:1;" d="M 170.347656 62.355469 C 167.914062 62.355469 166.960938 63.832031 166.960938 65.925781 C 166.960938 68.019531 167.914062 69.589844 170.210938 69.589844 C 172.738281 69.589844 173.648438 68.089844 173.648438 65.949219 C 173.648438 63.835938 172.648438 62.351562 170.347656 62.351562 M 170.167969 72.363281 C 165.667969 72.363281 163.414062 69.882812 163.414062 65.945312 C 163.414062 61.765625 166.144531 59.574219 170.507812 59.574219 C 175.171875 59.574219 177.21875 62.125 177.21875 65.96875 C 177.21875 70.085938 174.71875 72.371094 170.167969 72.371094 "/>
<path style=" stroke:none;fill-rule:nonzero;fill:rgb(50.588235%,51.372549%,52.54902%);fill-opacity:1;" d="M 185.769531 62.488281 L 185.769531 72.15625 L 182.242188 72.15625 L 182.242188 62.488281 L 178.351562 62.488281 L 178.351562 59.738281 L 189.660156 59.738281 L 189.660156 62.488281 Z M 185.769531 62.488281 "/>
<path style=" stroke:none;fill-rule:nonzero;fill:rgb(50.588235%,51.372549%,52.54902%);fill-opacity:1;" d="M 191.707031 72.15625 L 191.707031 59.738281 L 201.046875 59.738281 L 201.046875 62.488281 L 195.230469 62.488281 L 195.230469 64.628906 L 200.664062 64.628906 L 200.664062 67.246094 L 195.230469 67.246094 L 195.230469 69.40625 L 201.460938 69.40625 L 201.460938 72.15625 Z M 191.707031 72.15625 "/>
<path style=" stroke:none;fill-rule:nonzero;fill:rgb(50.588235%,51.372549%,52.54902%);fill-opacity:1;" d="M 204.414062 72.15625 L 204.414062 59.738281 L 207.941406 59.738281 L 207.941406 69.378906 L 213.3125 69.378906 L 213.3125 72.15625 Z M 204.414062 72.15625 "/>
<path style=" stroke:none;fill-rule:nonzero;fill:rgb(50.588235%,51.372549%,52.54902%);fill-opacity:1;" d="M 215.355469 72.15625 L 215.355469 59.738281 L 224.703125 59.738281 L 224.703125 62.488281 L 218.882812 62.488281 L 218.882812 64.628906 L 224.316406 64.628906 L 224.316406 67.246094 L 218.882812 67.246094 L 218.882812 69.40625 L 225.113281 69.40625 L 225.113281 72.15625 Z M 215.355469 72.15625 "/>
<path style=" stroke:none;fill-rule:nonzero;fill:rgb(50.588235%,51.372549%,52.54902%);fill-opacity:1;" d="M 232.023438 72.339844 C 230.355469 72.46875 228.683594 72.207031 227.136719 71.570312 L 228.109375 68.886719 C 229.359375 69.300781 230.664062 69.5 231.980469 69.472656 C 233.660156 69.472656 234.144531 69.046875 234.144531 68.589844 C 234.144531 66.972656 227.476562 67.589844 227.476562 63.128906 C 227.476562 60.628906 230.296875 59.671875 232.820312 59.671875 C 234.355469 59.574219 235.894531 59.824219 237.320312 60.398438 L 236.519531 62.972656 C 235.339844 62.648438 234.125 62.488281 232.902344 62.492188 C 231.539062 62.492188 231.378906 62.859375 231.378906 63.128906 C 231.378906 64.648438 238.15625 64.605469 238.15625 68.476562 C 238.15625 71.320312 234.949219 72.339844 232.011719 72.339844 "/>
</g>
</svg>
